<svg width="1024.000000" height="1024.000000" version="1.1" baseProfile="full" xmlns="http://www.w3.org/2000/svg">
<g transform="translate(0,1024.000000) scale(1,-1)">
<polyline stroke="black" fill="none" points="496.095271,255.364499 496.014318,319.920521" />
<polyline stroke="black" fill="none" points="496.095271,255.364499 470.544412,273.314151" />
<polyline stroke="black" fill="none" points="496.095271,255.364499 554.622844,263.970233" />
<polyline stroke="black" fill="none" points="496.014318,319.920521 470.344289,334.628228" />
<polyline stroke="black" fill="none" points="496.014318,319.920521 554.834424,326.972904" />
<polyline stroke="black" fill="none" points="470.544412,273.314151 470.344289,334.628228" />
<polyline stroke="black" fill="none" points="470.344289,334.628228 526.805465,340.980197" />
<polyline stroke="black" fill="none" points="554.622844,263.970233 554.834424,326.972904" />
<polyline stroke="black" fill="none" points="554.834424,326.972904 526.805465,340.980197" />
<polyline stroke="black" fill="none" points="404.799605,319.127121 404.296671,378.930298" />
<polyline stroke="black" fill="none" points="404.799605,319.127121 395.307398,333.564684" />
<polyline stroke="black" fill="none" points="404.799605,319.127121 464.057847,323.144079" />
<polyline stroke="black" fill="none" points="404.296671,378.930298 394.787687,390.400218" />
<polyline stroke="black" fill="none" points="404.296671,378.930298 463.836098,382.122115" />
<polyline stroke="black" fill="none" points="395.307398,333.564684 394.787687,390.400218" />
<polyline stroke="black" fill="none" points="394.787687,390.400218 451.476445,393.278656" />
<polyline stroke="black" fill="none" points="464.057847,323.144079 463.836098,382.122115" />
<polyline stroke="black" fill="none" points="463.836098,382.122115 451.476445,393.278656" />
<polyline stroke="black" fill="none" points="327.478250,373.894051 326.676154,429.542049" />
<polyline stroke="black" fill="none" points="327.478250,373.894051 384.039361,374.917635" />
<polyline stroke="black" fill="none" points="326.676154,429.542049 330.993586,438.069650" />
<polyline stroke="black" fill="none" points="326.676154,429.542049 383.485602,430.322707" />
<polyline stroke="black" fill="none" points="330.993586,438.069650 385.038020,438.776490" />
<polyline stroke="black" fill="none" points="384.039361,374.917635 383.485602,430.322707" />
<polyline stroke="black" fill="none" points="384.039361,374.917635 385.558746,386.004609" />
<polyline stroke="black" fill="none" points="383.485602,430.322707 385.038020,438.776490" />
<polyline stroke="black" fill="none" points="385.558746,386.004609 385.038020,438.776490" />
<polyline stroke="black" fill="none" points="261.616285,421.339133 260.603174,473.330182" />
<polyline stroke="black" fill="none" points="261.616285,421.339133 312.927393,420.575050" />
<polyline stroke="black" fill="none" points="260.603174,473.330182 276.375916,479.308941" />
<polyline stroke="black" fill="none" points="260.603174,473.330182 312.118537,472.779973" />
<polyline stroke="black" fill="none" points="276.375916,479.308941 325.608602,478.807599" />
<polyline stroke="black" fill="none" points="312.927393,420.575050 312.118537,472.779973" />
<polyline stroke="black" fill="none" points="312.927393,420.575050 326.328659,428.947110" />
<polyline stroke="black" fill="none" points="312.118537,472.779973 325.608602,478.807599" />
<polyline stroke="black" fill="none" points="326.328659,428.947110 325.608602,478.807599" />
<polyline stroke="black" fill="none" points="205.237634,462.756193 204.077414,511.510594" />
<polyline stroke="black" fill="none" points="205.237634,462.756193 249.484730,461.100449" />
<polyline stroke="black" fill="none" points="204.077414,511.510594 228.975129,515.376472" />
<polyline stroke="black" fill="none" points="204.077414,511.510594 248.480270,510.417526" />
<polyline stroke="black" fill="none" points="228.975129,515.376472 271.803119,514.372264" />
<polyline stroke="black" fill="none" points="249.484730,461.100449 248.480270,510.417526" />
<polyline stroke="black" fill="none" points="249.484730,461.100449 260.399950,463.919713" />
<polyline stroke="black" fill="none" points="248.480270,510.417526 271.803119,514.372264" />
<polyline stroke="black" fill="none" points="272.470593,478.407466 271.803119,514.372264" />
<polyline stroke="black" fill="none" points="156.756947,499.163598 155.496251,545.039550" />
<polyline stroke="black" fill="none" points="156.756947,499.163598 192.755021,497.263102" />
<polyline stroke="black" fill="none" points="155.496251,545.039550 187.281649,547.235447" />
<polyline stroke="black" fill="none" points="155.496251,545.039550 191.601690,543.957650" />
<polyline stroke="black" fill="none" points="187.281649,547.235447 222.596332,546.231787" />
<polyline stroke="black" fill="none" points="192.755021,497.263102 191.601690,543.957650" />
<polyline stroke="black" fill="none" points="192.755021,497.263102 204.128544,498.736243" />
<polyline stroke="black" fill="none" points="191.601690,543.957650 222.596332,546.231787" />
<polyline stroke="black" fill="none" points="223.299295,514.717501 222.596332,546.231787" />
<polyline stroke="black" fill="none" points="114.879513,531.375457 113.552473,574.680907" />
<polyline stroke="black" fill="none" points="114.879513,531.375457 141.978742,529.675901" />
<polyline stroke="black" fill="none" points="113.552473,574.680907 150.117652,575.633654" />
<polyline stroke="black" fill="none" points="113.552473,574.680907 140.713683,573.976351" />
<polyline stroke="black" fill="none" points="150.117652,575.633654 177.229083,574.972923" />
<polyline stroke="black" fill="none" points="141.978742,529.675901 140.713683,573.976351" />
<polyline stroke="black" fill="none" points="141.978742,529.675901 155.338709,530.559363" />
<polyline stroke="black" fill="none" points="140.713683,573.976351 177.229083,574.972923" />
<polyline stroke="black" fill="none" points="177.958751,546.631772 177.229083,574.972923" />
<polyline stroke="black" fill="none" points="78.532095,560.051266 77.163682,601.052924" />
<polyline stroke="black" fill="none" points="78.532095,560.051266 96.534501,558.836247" />
<polyline stroke="black" fill="none" points="77.163682,601.052924 116.555908,601.158389" />
<polyline stroke="black" fill="none" points="77.163682,601.052924 95.187482,600.941760" />
<polyline stroke="black" fill="none" points="116.555908,601.158389 135.141857,601.052924" />
<polyline stroke="black" fill="none" points="96.534501,558.836247 95.187482,600.941760" />
<polyline stroke="black" fill="none" points="96.534501,558.836247 113.505832,559.354437" />
<polyline stroke="black" fill="none" points="95.187482,600.941760 135.141857,601.052924" />
<polyline stroke="black" fill="none" points="135.878032,575.601460 135.141857,601.052924" />
<polyline stroke="black" fill="none" points="46.814153,585.731251 45.422549,624.661557" />
<polyline stroke="black" fill="none" points="46.814153,585.731251 55.897828,585.155032" />
<polyline stroke="black" fill="none" points="45.422549,624.661557 54.492823,625.241280" />
<polyline stroke="black" fill="none" points="95.926153,624.831809 95.926153,624.831809" />
<polyline stroke="black" fill="none" points="55.897828,585.155032 54.492823,625.241280" />
<polyline stroke="black" fill="none" points="55.897828,585.155032 77.575088,585.368751" />
<polyline stroke="black" fill="none" points="54.492823,625.241280 95.926153,624.831809" />
<polyline stroke="black" fill="none" points="96.678125,601.241545 95.926153,624.831809" />
<polyline stroke="black" fill="none" points="18.962761,608.862037 17.561092,645.924618" />
<polyline stroke="black" fill="none" points="18.962761,608.862037 45.332750,608.827924" />
<polyline stroke="black" fill="none" points="18.962761,608.862037 19.612313,608.977402" />
<polyline stroke="black" fill="none" points="17.561092,645.924618 18.168654,647.200975" />
<polyline stroke="black" fill="none" points="19.612313,608.977402 18.168654,647.200975" />
<polyline stroke="black" fill="none" points="19.612313,608.977402 45.975659,608.942225" />
<polyline stroke="black" fill="none" points="18.168654,647.200975 59.287762,646.595996" />
<polyline stroke="black" fill="none" points="60.019187,625.472181 59.287762,646.595996" />
<polyline stroke="black" fill="none" points="576.320237,319.127121 576.621998,378.930298" />
<polyline stroke="black" fill="none" points="576.320237,319.127121 558.170716,333.564684" />
<polyline stroke="black" fill="none" points="576.320237,319.127121 633.169758,323.144079" />
<polyline stroke="black" fill="none" points="576.621998,378.930298 558.376346,390.400218" />
<polyline stroke="black" fill="none" points="576.621998,378.930298 633.730210,382.122115" />
<polyline stroke="black" fill="none" points="558.170716,333.564684 558.376346,390.400218" />
<polyline stroke="black" fill="none" points="558.376346,390.400218 612.872591,393.278656" />
<polyline stroke="black" fill="none" points="633.169758,323.144079 633.730210,382.122115" />
<polyline stroke="black" fill="none" points="633.730210,382.122115 612.872591,393.278656" />
<polyline stroke="black" fill="none" points="486.453215,373.894051 486.342166,429.542049" />
<polyline stroke="black" fill="none" points="486.453215,373.894051 483.026739,385.077425" />
<polyline stroke="black" fill="none" points="486.453215,373.894051 542.310725,374.917635" />
<polyline stroke="black" fill="none" points="486.342166,429.542049 482.906911,438.069650" />
<polyline stroke="black" fill="none" points="486.342166,429.542049 542.441896,430.322707" />
<polyline stroke="black" fill="none" points="483.026739,385.077425 482.906911,438.069650" />
<polyline stroke="black" fill="none" points="482.906911,438.069650 536.308735,438.776490" />
<polyline stroke="black" fill="none" points="542.310725,374.917635 542.441896,430.322707" />
<polyline stroke="black" fill="none" points="542.441896,430.322707 536.308735,438.776490" />
<polyline stroke="black" fill="none" points="409.639974,421.339133 409.225802,473.330182" />
<polyline stroke="black" fill="none" points="409.639974,421.339133 461.566344,420.575050" />
<polyline stroke="black" fill="none" points="409.225802,473.330182 418.258570,479.308941" />
<polyline stroke="black" fill="none" points="409.225802,473.330182 461.361426,472.779973" />
<polyline stroke="black" fill="none" points="418.258570,479.308941 468.056428,478.807599" />
<polyline stroke="black" fill="none" points="461.566344,420.575050 461.361426,472.779973" />
<polyline stroke="black" fill="none" points="461.566344,420.575050 468.226189,428.947110" />
<polyline stroke="black" fill="none" points="461.361426,472.779973 468.056428,478.807599" />
<polyline stroke="black" fill="none" points="468.226189,428.947110 468.056428,478.807599" />
<polyline stroke="black" fill="none" points="343.636681,462.756193 342.999906,511.510594" />
<polyline stroke="black" fill="none" points="343.636681,462.756193 389.492874,461.100449" />
<polyline stroke="black" fill="none" points="342.999906,511.510594 362.163303,515.376472" />
<polyline stroke="black" fill="none" points="342.999906,511.510594 389.024126,510.417526" />
<polyline stroke="black" fill="none" points="362.163303,515.376472 406.480852,514.372264" />
<polyline stroke="black" fill="none" points="389.492874,461.100449 389.024126,510.417526" />
<polyline stroke="black" fill="none" points="389.492874,461.100449 406.866333,467.091652" />
<polyline stroke="black" fill="none" points="389.024126,510.417526 406.480852,514.372264" />
<polyline stroke="black" fill="none" points="406.866333,467.091652 406.480852,514.372264" />
<polyline stroke="black" fill="none" points="286.648367,499.163598 285.848633,545.039550" />
<polyline stroke="black" fill="none" points="286.648367,499.163598 324.975210,497.263102" />
<polyline stroke="black" fill="none" points="285.848633,545.039550 312.873495,547.235447" />
<polyline stroke="black" fill="none" points="285.848633,545.039550 324.299548,543.957650" />
<polyline stroke="black" fill="none" points="312.873495,547.235447 350.364036,546.231787" />
<polyline stroke="black" fill="none" points="324.975210,497.263102 324.299548,543.957650" />
<polyline stroke="black" fill="none" points="324.975210,497.263102 342.832178,500.012338" />
<polyline stroke="black" fill="none" points="324.299548,543.957650 350.364036,546.231787" />
<polyline stroke="black" fill="none" points="350.767840,513.819342 350.364036,546.231787" />
<polyline stroke="black" fill="none" points="237.213395,531.375457 236.295153,574.680907" />
<polyline stroke="black" fill="none" points="237.213395,531.375457 267.130188,529.675901" />
<polyline stroke="black" fill="none" points="236.295153,574.680907 269.024439,575.633654" />
<polyline stroke="black" fill="none" points="236.295153,574.680907 266.293007,573.976351" />
<polyline stroke="black" fill="none" points="269.024439,575.633654 298.796064,574.972923" />
<polyline stroke="black" fill="none" points="267.130188,529.675901 266.293007,573.976351" />
<polyline stroke="black" fill="none" points="267.130188,529.675901 285.514528,531.041298" />
<polyline stroke="black" fill="none" points="266.293007,573.976351 298.796064,574.972923" />
<polyline stroke="black" fill="none" points="299.260764,546.631772 298.796064,574.972923" />
<polyline stroke="black" fill="none" points="194.123537,560.051266 193.120033,601.052924" />
<polyline stroke="black" fill="none" points="194.123537,560.051266 215.238929,558.836247" />
<polyline stroke="black" fill="none" points="193.120033,601.052924 229.539934,601.158389" />
<polyline stroke="black" fill="none" points="193.120033,601.052924 214.276773,600.941760" />
<polyline stroke="black" fill="none" points="229.539934,601.158389 251.098209,601.052924" />
<polyline stroke="black" fill="none" points="215.238929,558.836247 214.276773,600.941760" />
<polyline stroke="black" fill="none" points="215.238929,558.836247 236.019699,559.524601" />
<polyline stroke="black" fill="none" points="214.276773,600.941760 251.098209,601.052924" />
<polyline stroke="black" fill="none" points="251.607868,575.601460 251.098209,601.052924" />
<polyline stroke="black" fill="none" points="156.367550,585.731251 155.303675,624.661557" />
<polyline stroke="black" fill="none" points="156.367550,585.731251 168.699137,585.155032" />
<polyline stroke="black" fill="none" points="155.303675,624.661557 167.641612,625.241280" />
<polyline stroke="black" fill="none" points="206.766918,624.831809 206.766918,624.831809" />
<polyline stroke="black" fill="none" points="168.699137,585.155032 167.641612,625.241280" />
<polyline stroke="black" fill="none" points="168.699137,585.155032 193.058763,585.409329" />
<polyline stroke="black" fill="none" points="167.641612,625.241280 206.766918,624.831809" />
<polyline stroke="black" fill="none" points="207.318567,601.241545 206.766918,624.831809" />
<polyline stroke="black" fill="none" points="123.090584,608.862037 121.984943,645.924618" />
<polyline stroke="black" fill="none" points="123.090584,608.862037 155.347584,608.818730" />
<polyline stroke="black" fill="none" points="123.090584,608.862037 126.991475,608.977402" />
<polyline stroke="black" fill="none" points="121.984943,645.924618 125.862647,647.200975" />
<polyline stroke="black" fill="none" points="126.991475,608.977402 125.862647,647.200975" />
<polyline stroke="black" fill="none" points="126.991475,608.977402 155.502035,608.937874" />
<polyline stroke="black" fill="none" points="125.862647,647.200975 165.431744,646.595996" />
<polyline stroke="black" fill="none" points="165.991677,625.472181 165.431744,646.595996" />
<polyline stroke="black" fill="none" points="93.564448,629.815618 121.765085,629.662206" />
<polyline stroke="black" fill="none" points="93.564448,629.815618 89.656012,630.597737" />
<polyline stroke="black" fill="none" points="88.475455,667.099520 88.475455,667.099520" />
<polyline stroke="black" fill="none" points="130.065568,647.834106 129.572992,664.697710" />
<polyline stroke="black" fill="none" points="129.572992,664.697710 126.822866,666.575944" />
<polyline stroke="black" fill="none" points="89.656012,630.597737 88.475455,667.099520" />
<polyline stroke="black" fill="none" points="89.656012,630.597737 121.813823,630.417402" />
<polyline stroke="black" fill="none" points="88.475455,667.099520 126.822866,666.575944" />
<polyline stroke="black" fill="none" points="127.377200,647.730789 126.822866,666.575944" />
<polyline stroke="black" fill="none" points="645.428181,373.894051 646.008179,429.542049" />
<polyline stroke="black" fill="none" points="645.428181,373.894051 634.314364,385.077425" />
<polyline stroke="black" fill="none" points="645.428181,373.894051 700.582089,374.917635" />
<polyline stroke="black" fill="none" points="646.008179,429.542049 634.820235,438.069650" />
<polyline stroke="black" fill="none" points="646.008179,429.542049 701.398190,430.322707" />
<polyline stroke="black" fill="none" points="634.314364,385.077425 634.820235,438.069650" />
<polyline stroke="black" fill="none" points="634.820235,438.069650 687.579451,438.776490" />
<polyline stroke="black" fill="none" points="700.582089,374.917635 701.398190,430.322707" />
<polyline stroke="black" fill="none" points="701.398190,430.322707 687.579451,438.776490" />
<polyline stroke="black" fill="none" points="557.663663,421.339133 557.848429,473.330182" />
<polyline stroke="black" fill="none" points="557.663663,421.339133 610.205294,420.575050" />
<polyline stroke="black" fill="none" points="557.848429,473.330182 560.141224,479.308941" />
<polyline stroke="black" fill="none" points="557.848429,473.330182 610.604314,472.779973" />
<polyline stroke="black" fill="none" points="560.141224,479.308941 610.504255,478.807599" />
<polyline stroke="black" fill="none" points="610.205294,420.575050 610.604314,472.779973" />
<polyline stroke="black" fill="none" points="610.604314,472.779973 610.504255,478.807599" />
<polyline stroke="black" fill="none" points="482.035727,462.756193 481.922398,511.510594" />
<polyline stroke="black" fill="none" points="482.035727,462.756193 529.501018,461.100449" />
<polyline stroke="black" fill="none" points="481.922398,511.510594 495.351478,515.376472" />
<polyline stroke="black" fill="none" points="481.922398,511.510594 529.567982,510.417526" />
<polyline stroke="black" fill="none" points="495.351478,515.376472 541.158584,514.372264" />
<polyline stroke="black" fill="none" points="529.501018,461.100449 529.567982,510.417526" />
<polyline stroke="black" fill="none" points="529.501018,461.100449 541.052063,467.091652" />
<polyline stroke="black" fill="none" points="529.567982,510.417526 541.158584,514.372264" />
<polyline stroke="black" fill="none" points="541.052063,467.091652 541.158584,514.372264" />
<polyline stroke="black" fill="none" points="416.539788,499.163598 416.201016,545.039550" />
<polyline stroke="black" fill="none" points="416.539788,499.163598 457.195398,497.263102" />
<polyline stroke="black" fill="none" points="416.201016,545.039550 438.465341,547.235447" />
<polyline stroke="black" fill="none" points="416.201016,545.039550 456.997406,543.957650" />
<polyline stroke="black" fill="none" points="478.249141,501.258196 478.249141,501.258196" />
<polyline stroke="black" fill="none" points="438.465341,547.235447 478.131740,546.231787" />
<polyline stroke="black" fill="none" points="457.195398,497.263102 456.997406,543.957650" />
<polyline stroke="black" fill="none" points="457.195398,497.263102 478.249141,501.258196" />
<polyline stroke="black" fill="none" points="456.997406,543.957650 478.131740,546.231787" />
<polyline stroke="black" fill="none" points="478.249141,501.258196 478.131740,546.231787" />
<polyline stroke="black" fill="none" points="359.547278,531.375457 359.037834,574.680907" />
<polyline stroke="black" fill="none" points="359.547278,531.375457 392.281634,529.675901" />
<polyline stroke="black" fill="none" points="359.037834,574.680907 387.931226,575.633654" />
<polyline stroke="black" fill="none" points="359.037834,574.680907 391.872331,573.976351" />
<polyline stroke="black" fill="none" points="387.931226,575.633654 420.363045,574.972923" />
<polyline stroke="black" fill="none" points="392.281634,529.675901 391.872331,573.976351" />
<polyline stroke="black" fill="none" points="392.281634,529.675901 416.246044,531.705641" />
<polyline stroke="black" fill="none" points="391.872331,573.976351 420.363045,574.972923" />
<polyline stroke="black" fill="none" points="420.568816,545.774878 420.363045,574.972923" />
<polyline stroke="black" fill="none" points="309.714978,560.051266 309.076385,601.052924" />
<polyline stroke="black" fill="none" points="309.714978,560.051266 333.943357,558.836247" />
<polyline stroke="black" fill="none" points="309.076385,601.052924 342.523960,601.158389" />
<polyline stroke="black" fill="none" points="309.076385,601.052924 333.366064,600.941760" />
<polyline stroke="black" fill="none" points="342.523960,601.158389 367.054561,601.052924" />
<polyline stroke="black" fill="none" points="333.943357,558.836247 333.366064,600.941760" />
<polyline stroke="black" fill="none" points="333.943357,558.836247 358.953721,559.741534" />
<polyline stroke="black" fill="none" points="333.366064,600.941760 367.054561,601.052924" />
<polyline stroke="black" fill="none" points="367.337705,575.601460 367.054561,601.052924" />
<polyline stroke="black" fill="none" points="265.920947,585.731251 265.184801,624.661557" />
<polyline stroke="black" fill="none" points="265.920947,585.731251 281.500447,585.155032" />
<polyline stroke="black" fill="none" points="265.184801,624.661557 280.790401,625.241280" />
<polyline stroke="black" fill="none" points="317.607682,624.831809 317.607682,624.831809" />
<polyline stroke="black" fill="none" points="281.500447,585.155032 280.790401,625.241280" />
<polyline stroke="black" fill="none" points="281.500447,585.155032 308.796913,585.457803" />
<polyline stroke="black" fill="none" points="280.790401,625.241280 317.607682,624.831809" />
<polyline stroke="black" fill="none" points="317.959008,601.241545 317.607682,624.831809" />
<polyline stroke="black" fill="none" points="227.218406,608.862037 226.408793,645.924618" />
<polyline stroke="black" fill="none" points="227.218406,608.862037 264.084305,608.810596" />
<polyline stroke="black" fill="none" points="227.218406,608.862037 234.370637,608.977402" />
<polyline stroke="black" fill="none" points="226.408793,645.924618 233.556640,647.200975" />
<polyline stroke="black" fill="none" points="264.084305,608.810596 265.360776,608.828084" />
<polyline stroke="black" fill="none" points="271.575725,646.595996 271.575725,646.595996" />
<polyline stroke="black" fill="none" points="234.370637,608.977402 233.556640,647.200975" />
<polyline stroke="black" fill="none" points="234.370637,608.977402 264.776192,608.933532" />
<polyline stroke="black" fill="none" points="233.556640,647.200975 271.575725,646.595996" />
<polyline stroke="black" fill="none" points="271.964167,625.472181 271.575725,646.595996" />
<polyline stroke="black" fill="none" points="192.801948,629.815618 226.148174,629.630152" />
<polyline stroke="black" fill="none" points="192.801948,629.815618 192.042433,630.597737" />
<polyline stroke="black" fill="none" points="191.148072,667.099520 191.148072,667.099520" />
<polyline stroke="black" fill="none" points="228.627486,666.575944 228.627486,666.575944" />
<polyline stroke="black" fill="none" points="192.042433,630.597737 191.148072,667.099520" />
<polyline stroke="black" fill="none" points="192.042433,630.597737 226.444456,630.400360" />
<polyline stroke="black" fill="none" points="191.148072,667.099520 228.627486,666.575944" />
<polyline stroke="black" fill="none" points="229.050969,647.007058 228.627486,666.575944" />
<polyline stroke="black" fill="none" points="161.982380,648.903623 191.433281,648.804121" />
<polyline stroke="black" fill="none" points="161.982380,648.903623 154.056217,650.270524" />
<polyline stroke="black" fill="none" points="195.758995,667.668503 195.399831,682.541502" />
<polyline stroke="black" fill="none" points="191.472962,649.730847 189.377346,650.147534" />
<polyline stroke="black" fill="none" points="195.399831,682.541502 188.518569,684.959521" />
<polyline stroke="black" fill="none" points="154.056217,650.270524 153.100808,685.178279" />
<polyline stroke="black" fill="none" points="154.056217,650.270524 189.377346,650.147534" />
<polyline stroke="black" fill="none" points="153.100808,685.178279 188.518569,684.959521" />
<polyline stroke="black" fill="none" points="189.377346,650.147534 188.518569,684.959521" />
<polyline stroke="black" fill="none" points="705.687353,421.339133 706.471057,473.330182" />
<polyline stroke="black" fill="none" points="705.687353,421.339133 701.460839,429.325840" />
<polyline stroke="black" fill="none" points="705.687353,421.339133 758.844245,420.575050" />
<polyline stroke="black" fill="none" points="706.471057,473.330182 702.023878,479.308941" />
<polyline stroke="black" fill="none" points="706.471057,473.330182 759.847203,472.779973" />
<polyline stroke="black" fill="none" points="701.307259,430.633148 702.023878,479.308941" />
<polyline stroke="black" fill="none" points="702.023878,479.308941 752.952081,478.807599" />
<polyline stroke="black" fill="none" points="758.844245,420.575050 759.847203,472.779973" />
<polyline stroke="black" fill="none" points="759.847203,472.779973 752.952081,478.807599" />
<polyline stroke="black" fill="none" points="620.434774,462.756193 620.844890,511.510594" />
<polyline stroke="black" fill="none" points="620.434774,462.756193 669.509162,461.100449" />
<polyline stroke="black" fill="none" points="620.844890,511.510594 628.539653,515.376472" />
<polyline stroke="black" fill="none" points="620.844890,511.510594 670.111838,510.417526" />
<polyline stroke="black" fill="none" points="628.539653,515.376472 675.836317,514.372264" />
<polyline stroke="black" fill="none" points="669.509162,461.100449 670.111838,510.417526" />
<polyline stroke="black" fill="none" points="669.509162,461.100449 675.237792,467.091652" />
<polyline stroke="black" fill="none" points="670.111838,510.417526 675.836317,514.372264" />
<polyline stroke="black" fill="none" points="675.237792,467.091652 675.836317,514.372264" />
<polyline stroke="black" fill="none" points="546.431208,499.163598 546.553398,545.039550" />
<polyline stroke="black" fill="none" points="546.431208,499.163598 589.415586,497.263102" />
<polyline stroke="black" fill="none" points="546.553398,545.039550 564.057188,547.235447" />
<polyline stroke="black" fill="none" points="546.553398,545.039550 589.695264,543.957650" />
<polyline stroke="black" fill="none" points="605.573951,501.258196 605.573951,501.258196" />
<polyline stroke="black" fill="none" points="564.057188,547.235447 605.899444,546.231787" />
<polyline stroke="black" fill="none" points="589.415586,497.263102 589.695264,543.957650" />
<polyline stroke="black" fill="none" points="589.415586,497.263102 605.573951,501.258196" />
<polyline stroke="black" fill="none" points="589.695264,543.957650 605.899444,546.231787" />
<polyline stroke="black" fill="none" points="605.573951,501.258196 605.899444,546.231787" />
<polyline stroke="black" fill="none" points="481.881161,531.375457 481.780514,574.680907" />
<polyline stroke="black" fill="none" points="481.881161,531.375457 517.433080,529.675901" />
<polyline stroke="black" fill="none" points="481.780514,574.680907 506.838013,575.633654" />
<polyline stroke="black" fill="none" points="481.780514,574.680907 517.451655,573.976351" />
<polyline stroke="black" fill="none" points="506.838013,575.633654 541.930026,574.972923" />
<polyline stroke="black" fill="none" points="517.433080,529.675901 517.451655,573.976351" />
<polyline stroke="black" fill="none" points="517.433080,529.675901 541.831295,532.079946" />
<polyline stroke="black" fill="none" points="517.451655,573.976351 541.930026,574.972923" />
<polyline stroke="black" fill="none" points="541.831295,532.079946 541.930026,574.972923" />
<polyline stroke="black" fill="none" points="425.306419,560.051266 425.032736,601.052924" />
<polyline stroke="black" fill="none" points="425.306419,560.051266 452.647786,558.836247" />
<polyline stroke="black" fill="none" points="425.032736,601.052924 455.507987,601.158389" />
<polyline stroke="black" fill="none" points="425.032736,601.052924 452.455355,600.941760" />
<polyline stroke="black" fill="none" points="455.507987,601.158389 483.010912,601.052924" />
<polyline stroke="black" fill="none" points="452.647786,558.836247 452.455355,600.941760" />
<polyline stroke="black" fill="none" points="452.647786,558.836247 481.319994,559.980165" />
<polyline stroke="black" fill="none" points="452.455355,600.941760 483.010912,601.052924" />
<polyline stroke="black" fill="none" points="483.069364,574.782100 483.010912,601.052924" />
<polyline stroke="black" fill="none" points="375.474344,585.731251 375.065928,624.661557" />
<polyline stroke="black" fill="none" points="375.474344,585.731251 394.301756,585.155032" />
<polyline stroke="black" fill="none" points="375.065928,624.661557 393.939191,625.241280" />
<polyline stroke="black" fill="none" points="428.448447,624.831809 428.448447,624.831809" />
<polyline stroke="black" fill="none" points="394.301756,585.155032 393.939191,625.241280" />
<polyline stroke="black" fill="none" points="394.301756,585.155032 424.646101,585.514056" />
<polyline stroke="black" fill="none" points="393.939191,625.241280 428.448447,624.831809" />
<polyline stroke="black" fill="none" points="428.599450,601.241545 428.448447,624.831809" />
<polyline stroke="black" fill="none" points="331.346229,608.862037 330.832644,645.924618" />
<polyline stroke="black" fill="none" points="331.346229,608.862037 366.762380,608.810596" />
<polyline stroke="black" fill="none" points="331.346229,608.862037 341.749798,608.977402" />
<polyline stroke="black" fill="none" points="330.832644,645.924618 341.250632,647.200975" />
<polyline stroke="black" fill="none" points="366.762380,608.810596 375.090482,608.892911" />
<polyline stroke="black" fill="none" points="377.719707,646.595996 377.719707,646.595996" />
<polyline stroke="black" fill="none" points="341.749798,608.977402 341.250632,647.200975" />
<polyline stroke="black" fill="none" points="341.749798,608.977402 374.517970,608.928120" />
<polyline stroke="black" fill="none" points="341.250632,647.200975 377.719707,646.595996" />
<polyline stroke="black" fill="none" points="377.936657,625.472181 377.719707,646.595996" />
<polyline stroke="black" fill="none" points="292.039449,629.815618 291.443565,665.189619" />
<polyline stroke="black" fill="none" points="292.039449,629.815618 327.450530,629.614156" />
<polyline stroke="black" fill="none" points="292.039449,629.815618 294.428855,630.597737" />
<polyline stroke="black" fill="none" points="291.443565,665.189619 293.820689,667.099520" />
<polyline stroke="black" fill="none" points="327.450530,629.614156 330.933952,630.383342" />
<polyline stroke="black" fill="none" points="294.428855,630.597737 293.820689,667.099520" />
<polyline stroke="black" fill="none" points="294.428855,630.597737 330.933952,630.383342" />
<polyline stroke="black" fill="none" points="293.820689,667.099520 330.432106,666.575944" />
<polyline stroke="black" fill="none" points="330.933952,630.383342 330.432106,666.575944" />
<polyline stroke="black" fill="none" points="256.799275,648.903623 290.781093,648.787965" />
<polyline stroke="black" fill="none" points="256.799275,648.903623 251.836446,650.270524" />
<polyline stroke="black" fill="none" points="290.210083,682.541502 290.210083,682.541502" />
<polyline stroke="black" fill="none" points="290.781093,648.787965 290.210083,682.541502" />
<polyline stroke="black" fill="none" points="290.781093,648.787965 286.890943,650.147534" />
<polyline stroke="black" fill="none" points="290.210083,682.541502 286.291734,684.959521" />
<polyline stroke="black" fill="none" points="251.836446,650.270524 251.142028,685.178279" />
<polyline stroke="black" fill="none" points="251.836446,650.270524 286.890943,650.147534" />
<polyline stroke="black" fill="none" points="251.142028,685.178279 286.291734,684.959521" />
<polyline stroke="black" fill="none" points="286.890943,650.147534 286.291734,684.959521" />
<polyline stroke="black" fill="none" points="228.729324,666.406858 251.287974,666.519065" />
<polyline stroke="black" fill="none" points="223.188597,666.673836 213.515735,668.218270" />
<polyline stroke="black" fill="none" points="255.944138,685.395442 255.676920,699.080365" />
<polyline stroke="black" fill="none" points="251.324652,667.413486 245.759492,668.383599" />
<polyline stroke="black" fill="none" points="255.676920,699.080365 245.078075,701.902270" />
<polyline stroke="black" fill="none" points="213.515735,668.218270 212.753797,701.648633" />
<polyline stroke="black" fill="none" points="213.515735,668.218270 245.759492,668.383599" />
<polyline stroke="black" fill="none" points="212.753797,701.648633 245.078075,701.902270" />
<polyline stroke="black" fill="none" points="245.759492,668.383599 245.078075,701.902270" />
<polyline stroke="black" fill="none" points="759.057233,474.423712 759.767383,511.510594" />
<polyline stroke="black" fill="none" points="759.836071,462.723451 809.517306,461.100449" />
<polyline stroke="black" fill="none" points="759.767383,511.510594 761.727828,515.376472" />
<polyline stroke="black" fill="none" points="759.767383,511.510594 810.655694,510.417526" />
<polyline stroke="black" fill="none" points="761.727828,515.376472 810.514050,514.372264" />
<polyline stroke="black" fill="none" points="809.517306,461.100449 810.655694,510.417526" />
<polyline stroke="black" fill="none" points="810.655694,510.417526 810.514050,514.372264" />
<polyline stroke="black" fill="none" points="676.322628,499.163598 676.905781,545.039550" />
<polyline stroke="black" fill="none" points="676.322628,499.163598 721.635774,497.263102" />
<polyline stroke="black" fill="none" points="676.905781,545.039550 689.649034,547.235447" />
<polyline stroke="black" fill="none" points="676.905781,545.039550 722.393122,543.957650" />
<polyline stroke="black" fill="none" points="732.898761,501.258196 732.898761,501.258196" />
<polyline stroke="black" fill="none" points="689.649034,547.235447 733.667149,546.231787" />
<polyline stroke="black" fill="none" points="721.635774,497.263102 722.393122,543.957650" />
<polyline stroke="black" fill="none" points="721.635774,497.263102 732.898761,501.258196" />
<polyline stroke="black" fill="none" points="722.393122,543.957650 733.667149,546.231787" />
<polyline stroke="black" fill="none" points="732.898761,501.258196 733.667149,546.231787" />
<polyline stroke="black" fill="none" points="604.325741,546.932149 604.523195,574.680907" />
<polyline stroke="black" fill="none" points="606.468427,531.275645 642.584526,529.675901" />
<polyline stroke="black" fill="none" points="604.523195,574.680907 625.744800,575.633654" />
<polyline stroke="black" fill="none" points="604.523195,574.680907 643.030979,573.976351" />
<polyline stroke="black" fill="none" points="625.744800,575.633654 663.497008,574.972923" />
<polyline stroke="black" fill="none" points="642.584526,529.675901 643.030979,573.976351" />
<polyline stroke="black" fill="none" points="642.584526,529.675901 662.997260,532.079946" />
<polyline stroke="black" fill="none" points="643.030979,573.976351 663.497008,574.972923" />
<polyline stroke="black" fill="none" points="662.997260,532.079946 663.497008,574.972923" />
<polyline stroke="black" fill="none" points="540.932459,575.601460 540.989088,601.052924" />
<polyline stroke="black" fill="none" points="542.085334,560.003890 571.352214,558.836247" />
<polyline stroke="black" fill="none" points="540.989088,601.052924 568.492013,601.158389" />
<polyline stroke="black" fill="none" points="540.989088,601.052924 571.544645,600.941760" />
<polyline stroke="black" fill="none" points="568.492013,601.158389 598.967264,601.052924" />
<polyline stroke="black" fill="none" points="571.352214,558.836247 571.544645,600.941760" />
<polyline stroke="black" fill="none" points="571.352214,558.836247 598.693581,560.051266" />
<polyline stroke="black" fill="none" points="571.544645,600.941760 598.967264,601.052924" />
<polyline stroke="black" fill="none" points="598.693581,560.051266 598.967264,601.052924" />
<polyline stroke="black" fill="none" points="485.027741,585.731251 484.947054,624.661557" />
<polyline stroke="black" fill="none" points="485.027741,585.731251 507.103065,585.155032" />
<polyline stroke="black" fill="none" points="484.947054,624.661557 507.087980,625.241280" />
<polyline stroke="black" fill="none" points="539.207110,585.562018 539.207110,585.562018" />
<polyline stroke="black" fill="none" points="539.289211,624.831809 539.289211,624.831809" />
<polyline stroke="black" fill="none" points="507.103065,585.155032 507.087980,625.241280" />
<polyline stroke="black" fill="none" points="507.103065,585.155032 539.207110,585.562018" />
<polyline stroke="black" fill="none" points="507.087980,625.241280 539.289211,624.831809" />
<polyline stroke="black" fill="none" points="539.207110,585.562018 539.289211,624.831809" />
<polyline stroke="black" fill="none" points="435.474052,608.862037 435.256494,645.924618" />
<polyline stroke="black" fill="none" points="435.474052,608.862037 469.440455,608.810596" />
<polyline stroke="black" fill="none" points="435.474052,608.862037 449.128960,608.977402" />
<polyline stroke="black" fill="none" points="435.256494,645.924618 448.944625,647.200975" />
<polyline stroke="black" fill="none" points="469.440455,608.810596 483.944761,608.922722" />
<polyline stroke="black" fill="none" points="483.863688,646.595996 483.863688,646.595996" />
<polyline stroke="black" fill="none" points="449.128960,608.977402 448.944625,647.200975" />
<polyline stroke="black" fill="none" points="449.128960,608.977402 483.944761,608.922722" />
<polyline stroke="black" fill="none" points="448.944625,647.200975 483.863688,646.595996" />
<polyline stroke="black" fill="none" points="483.944761,608.922722 483.863688,646.595996" />
<polyline stroke="black" fill="none" points="391.276950,629.815618 390.949905,665.189619" />
<polyline stroke="black" fill="none" points="391.276950,629.815618 425.876914,629.614156" />
<polyline stroke="black" fill="none" points="391.276950,629.815618 396.815276,630.597737" />
<polyline stroke="black" fill="none" points="390.949905,665.189619 396.493306,667.099520" />
<polyline stroke="black" fill="none" points="425.876914,629.614156 432.457189,630.383342" />
<polyline stroke="black" fill="none" points="396.815276,630.597737 396.493306,667.099520" />
<polyline stroke="black" fill="none" points="396.815276,630.597737 432.457189,630.383342" />
<polyline stroke="black" fill="none" points="396.493306,667.099520 432.236727,666.575944" />
<polyline stroke="black" fill="none" points="432.457189,630.383342 432.236727,666.575944" />
<polyline stroke="black" fill="none" points="351.616169,648.903623 385.347251,648.787965" />
<polyline stroke="black" fill="none" points="351.616169,648.903623 349.616676,650.270524" />
<polyline stroke="black" fill="none" points="385.020336,682.541502 385.020336,682.541502" />
<polyline stroke="black" fill="none" points="385.347251,648.787965 385.020336,682.541502" />
<polyline stroke="black" fill="none" points="385.347251,648.787965 384.404541,650.147534" />
<polyline stroke="black" fill="none" points="385.020336,682.541502 384.064899,684.959521" />
<polyline stroke="black" fill="none" points="349.616676,650.270524 349.183249,685.178279" />
<polyline stroke="black" fill="none" points="349.616676,650.270524 384.404541,650.147534" />
<polyline stroke="black" fill="none" points="349.183249,685.178279 384.064899,684.959521" />
<polyline stroke="black" fill="none" points="384.404541,650.147534 384.064899,684.959521" />
<polyline stroke="black" fill="none" points="330.919005,666.462910 347.353282,666.544056" />
<polyline stroke="black" fill="none" points="313.734718,666.817657 307.040167,668.218270" />
<polyline stroke="black" fill="none" points="306.516968,701.648633 306.516968,701.648633" />
<polyline stroke="black" fill="none" points="347.353282,666.544056 346.944178,699.080365" />
<polyline stroke="black" fill="none" points="347.353282,666.544056 339.529160,668.383599" />
<polyline stroke="black" fill="none" points="346.944178,699.080365 339.087737,701.902270" />
<polyline stroke="black" fill="none" points="307.040167,668.218270 306.516968,701.648633" />
<polyline stroke="black" fill="none" points="307.040167,668.218270 339.529160,668.383599" />
<polyline stroke="black" fill="none" points="306.516968,701.648633 339.087737,701.902270" />
<polyline stroke="black" fill="none" points="339.529160,668.383599 339.087737,701.902270" />
<polyline stroke="black" fill="none" points="290.507260,682.636242 306.373890,682.952145" />
<polyline stroke="black" fill="none" points="311.020968,714.470275 311.020968,714.470275" />
<polyline stroke="black" fill="none" points="311.213415,701.885808 311.020968,714.470275" />
<polyline stroke="black" fill="none" points="306.596779,683.824777 297.633556,685.232951" />
<polyline stroke="black" fill="none" points="311.020968,714.470275 297.105494,717.535321" />
<polyline stroke="black" fill="none" points="268.621578,685.276967 268.038422,716.697311" />
<polyline stroke="black" fill="none" points="284.820127,684.969768 297.633556,685.232951" />
<polyline stroke="black" fill="none" points="268.038422,716.697311 297.105494,717.535321" />
<polyline stroke="black" fill="none" points="297.633556,685.232951 297.105494,717.535321" />
<polyline stroke="black" fill="none" points="806.568218,514.724973 807.258163,545.039550" />
<polyline stroke="black" fill="none" points="810.902587,498.976566 853.855962,497.263102" />
<polyline stroke="black" fill="none" points="807.258163,545.039550 815.240881,547.235447" />
<polyline stroke="black" fill="none" points="807.258163,545.039550 855.090980,543.957650" />
<polyline stroke="black" fill="none" points="815.240881,547.235447 861.434853,546.231787" />
<polyline stroke="black" fill="none" points="853.855962,497.263102 855.090980,543.957650" />
<polyline stroke="black" fill="none" points="853.855962,497.263102 860.223571,501.258196" />
<polyline stroke="black" fill="none" points="855.090980,543.957650 861.434853,546.231787" />
<polyline stroke="black" fill="none" points="860.223571,501.258196 861.434853,546.231787" />
<polyline stroke="black" fill="none" points="726.806477,546.932149 727.265875,574.680907" />
<polyline stroke="black" fill="none" points="733.825175,531.075208 767.735972,529.675901" />
<polyline stroke="black" fill="none" points="727.265875,574.680907 744.651588,575.633654" />
<polyline stroke="black" fill="none" points="727.265875,574.680907 768.610303,573.976351" />
<polyline stroke="black" fill="none" points="744.651588,575.633654 785.063989,574.972923" />
<polyline stroke="black" fill="none" points="767.735972,529.675901 768.610303,573.976351" />
<polyline stroke="black" fill="none" points="767.735972,529.675901 784.163225,532.079946" />
<polyline stroke="black" fill="none" points="768.610303,573.976351 785.063989,574.972923" />
<polyline stroke="black" fill="none" points="784.163225,532.079946 785.063989,574.972923" />
<polyline stroke="black" fill="none" points="656.662295,575.601460 656.945439,601.052924" />
<polyline stroke="black" fill="none" points="663.722182,559.789461 690.056643,558.836247" />
<polyline stroke="black" fill="none" points="656.945439,601.052924 681.476040,601.158389" />
<polyline stroke="black" fill="none" points="656.945439,601.052924 690.633936,600.941760" />
<polyline stroke="black" fill="none" points="681.476040,601.158389 714.923615,601.052924" />
<polyline stroke="black" fill="none" points="690.056643,558.836247 690.633936,600.941760" />
<polyline stroke="black" fill="none" points="690.056643,558.836247 714.285022,560.051266" />
<polyline stroke="black" fill="none" points="690.633936,600.941760 714.923615,601.052924" />
<polyline stroke="black" fill="none" points="714.285022,560.051266 714.923615,601.052924" />
<polyline stroke="black" fill="none" points="594.679778,601.275473 594.828180,624.661557" />
<polyline stroke="black" fill="none" points="599.031139,585.629993 619.904374,585.155032" />
<polyline stroke="black" fill="none" points="594.828180,624.661557 620.236769,625.241280" />
<polyline stroke="black" fill="none" points="649.714405,585.562018 649.714405,585.562018" />
<polyline stroke="black" fill="none" points="650.129976,624.831809 650.129976,624.831809" />
<polyline stroke="black" fill="none" points="619.904374,585.155032 620.236769,625.241280" />
<polyline stroke="black" fill="none" points="619.904374,585.155032 649.714405,585.562018" />
<polyline stroke="black" fill="none" points="620.236769,625.241280 650.129976,624.831809" />
<polyline stroke="black" fill="none" points="649.714405,585.562018 650.129976,624.831809" />
<polyline stroke="black" fill="none" points="539.601875,608.862037 539.680345,645.924618" />
<polyline stroke="black" fill="none" points="539.601875,608.862037 572.118530,608.810596" />
<polyline stroke="black" fill="none" points="539.601875,608.862037 556.508122,608.977402" />
<polyline stroke="black" fill="none" points="539.680345,645.924618 556.638618,647.200975" />
<polyline stroke="black" fill="none" points="572.118530,608.810596 589.782896,608.922722" />
<polyline stroke="black" fill="none" points="590.007670,646.595996 590.007670,646.595996" />
<polyline stroke="black" fill="none" points="556.508122,608.977402 556.638618,647.200975" />
<polyline stroke="black" fill="none" points="556.508122,608.977402 589.782896,608.922722" />
<polyline stroke="black" fill="none" points="556.638618,647.200975 590.007670,646.595996" />
<polyline stroke="black" fill="none" points="589.782896,608.922722 590.007670,646.595996" />
<polyline stroke="black" fill="none" points="490.514451,629.815618 490.456245,665.189619" />
<polyline stroke="black" fill="none" points="490.514451,629.815618 524.303298,629.614156" />
<polyline stroke="black" fill="none" points="490.514451,629.815618 499.201697,630.597737" />
<polyline stroke="black" fill="none" points="490.456245,665.189619 499.165923,667.099520" />
<polyline stroke="black" fill="none" points="524.303298,629.614156 533.980425,630.383342" />
<polyline stroke="black" fill="none" points="499.201697,630.597737 499.165923,667.099520" />
<polyline stroke="black" fill="none" points="499.201697,630.597737 533.980425,630.383342" />
<polyline stroke="black" fill="none" points="499.165923,667.099520 534.041347,666.575944" />
<polyline stroke="black" fill="none" points="533.980425,630.383342 534.041347,666.575944" />
<polyline stroke="black" fill="none" points="446.433064,648.903623 446.263373,682.747186" />
<polyline stroke="black" fill="none" points="446.433064,648.903623 479.913410,648.787965" />
<polyline stroke="black" fill="none" points="446.433064,648.903623 447.396905,650.270524" />
<polyline stroke="black" fill="none" points="446.263373,682.747186 447.224469,685.178279" />
<polyline stroke="black" fill="none" points="479.913410,648.787965 481.918139,650.147534" />
<polyline stroke="black" fill="none" points="481.838065,684.959521 481.838065,684.959521" />
<polyline stroke="black" fill="none" points="447.396905,650.270524 447.224469,685.178279" />
<polyline stroke="black" fill="none" points="447.396905,650.270524 481.918139,650.147534" />
<polyline stroke="black" fill="none" points="447.224469,685.178279 481.838065,684.959521" />
<polyline stroke="black" fill="none" points="481.918139,650.147534 481.838065,684.959521" />
<polyline stroke="black" fill="none" points="432.658916,666.515942 438.394327,666.544056" />
<polyline stroke="black" fill="none" points="404.585854,666.998383 400.564600,668.218270" />
<polyline stroke="black" fill="none" points="400.280140,701.648633 400.280140,701.648633" />
<polyline stroke="black" fill="none" points="438.394327,666.544056 438.211436,699.080365" />
<polyline stroke="black" fill="none" points="438.394327,666.544056 433.298827,668.383599" />
<polyline stroke="black" fill="none" points="438.211436,699.080365 433.097399,701.902270" />
<polyline stroke="black" fill="none" points="400.564600,668.218270 400.280140,701.648633" />
<polyline stroke="black" fill="none" points="400.564600,668.218270 433.298827,668.383599" />
<polyline stroke="black" fill="none" points="400.280140,701.648633 433.097399,701.902270" />
<polyline stroke="black" fill="none" points="433.298827,668.383599 433.097399,701.902270" />
<polyline stroke="black" fill="none" points="385.355068,682.782591 399.304839,683.054233" />
<polyline stroke="black" fill="none" points="399.034802,714.470275 399.034802,714.470275" />
<polyline stroke="black" fill="none" points="399.304839,683.054233 399.034802,714.470275" />
<polyline stroke="black" fill="none" points="399.304839,683.054233 387.893111,685.232951" />
<polyline stroke="black" fill="none" points="399.034802,714.470275 387.587392,717.535321" />
<polyline stroke="black" fill="none" points="358.214014,685.276967 357.845530,716.697311" />
<polyline stroke="black" fill="none" points="377.160235,685.017491 387.893111,685.232951" />
<polyline stroke="black" fill="none" points="357.845530,716.697311 387.587392,717.535321" />
<polyline stroke="black" fill="none" points="387.893111,685.232951 387.587392,717.535321" />
<polyline stroke="black" fill="none" points="347.130304,697.818418 357.726145,698.265011" />
<polyline stroke="black" fill="none" points="319.470819,730.490306 319.470819,730.490306" />
<polyline stroke="black" fill="none" points="362.083935,717.276302 361.952090,728.836961" />
<polyline stroke="black" fill="none" points="358.016295,699.059791 345.520140,700.816685" />
<polyline stroke="black" fill="none" points="361.952090,728.836961 345.125079,731.971512" />
<polyline stroke="black" fill="none" points="319.885342,702.159774 319.470819,730.490306" />
<polyline stroke="black" fill="none" points="342.933123,700.704036 345.520140,700.816685" />
<polyline stroke="black" fill="none" points="319.470819,730.490306 345.125079,731.971512" />
<polyline stroke="black" fill="none" points="345.520140,700.816685 345.125079,731.971512" />
<polyline stroke="black" fill="none" points="849.287213,546.932149 850.008555,574.680907" />
<polyline stroke="black" fill="none" points="861.874733,530.873680 892.887418,529.675901" />
<polyline stroke="black" fill="none" points="850.008555,574.680907 863.558375,575.633654" />
<polyline stroke="black" fill="none" points="850.008555,574.680907 894.189627,573.976351" />
<polyline stroke="black" fill="none" points="863.558375,575.633654 906.630970,574.972923" />
<polyline stroke="black" fill="none" points="892.887418,529.675901 894.189627,573.976351" />
<polyline stroke="black" fill="none" points="892.887418,529.675901 905.329190,532.079946" />
<polyline stroke="black" fill="none" points="894.189627,573.976351 906.630970,574.972923" />
<polyline stroke="black" fill="none" points="905.329190,532.079946 906.630970,574.972923" />
<polyline stroke="black" fill="none" points="772.392132,575.601460 772.901791,601.052924" />
<polyline stroke="black" fill="none" points="785.061920,559.621271 808.761071,558.836247" />
<polyline stroke="black" fill="none" points="772.901791,601.052924 794.460066,601.158389" />
<polyline stroke="black" fill="none" points="772.901791,601.052924 809.723227,600.941760" />
<polyline stroke="black" fill="none" points="794.460066,601.158389 830.879967,601.052924" />
<polyline stroke="black" fill="none" points="808.761071,558.836247 809.723227,600.941760" />
<polyline stroke="black" fill="none" points="808.761071,558.836247 829.876463,560.051266" />
<polyline stroke="black" fill="none" points="809.723227,600.941760 830.879967,601.052924" />
<polyline stroke="black" fill="none" points="829.876463,560.051266 830.879967,601.052924" />
<polyline stroke="black" fill="none" points="704.364032,601.275473 704.709306,624.661557" />
<polyline stroke="black" fill="none" points="714.795610,585.516240 732.705683,585.155032" />
<polyline stroke="black" fill="none" points="704.709306,624.661557 733.385558,625.241280" />
<polyline stroke="black" fill="none" points="732.705683,585.155032 733.385558,625.241280" />
<polyline stroke="black" fill="none" points="732.705683,585.155032 760.221700,585.562018" />
<polyline stroke="black" fill="none" points="733.385558,625.241280 760.970740,624.831809" />
<polyline stroke="black" fill="none" points="760.221700,585.562018 760.970740,624.831809" />
<polyline stroke="black" fill="none" points="643.894215,625.143651 644.104195,645.924618" />
<polyline stroke="black" fill="none" points="650.013064,608.851633 674.796605,608.810596" />
<polyline stroke="black" fill="none" points="650.046013,608.898186 663.887283,608.977402" />
<polyline stroke="black" fill="none" points="644.104195,645.924618 664.332610,647.200975" />
<polyline stroke="black" fill="none" points="674.796605,608.810596 695.621031,608.922722" />
<polyline stroke="black" fill="none" points="663.887283,608.977402 664.332610,647.200975" />
<polyline stroke="black" fill="none" points="663.887283,608.977402 695.621031,608.922722" />
<polyline stroke="black" fill="none" points="664.332610,647.200975 696.151651,646.595996" />
<polyline stroke="black" fill="none" points="695.621031,608.922722 696.151651,646.595996" />
<polyline stroke="black" fill="none" points="589.852914,646.771253 589.962585,665.189619" />
<polyline stroke="black" fill="none" points="590.416832,629.811557 622.729682,629.614156" />
<polyline stroke="black" fill="none" points="589.981536,629.830789 601.588119,630.597737" />
<polyline stroke="black" fill="none" points="589.962585,665.189619 601.838540,667.099520" />
<polyline stroke="black" fill="none" points="622.729682,629.614156 635.503662,630.383342" />
<polyline stroke="black" fill="none" points="601.588119,630.597737 601.838540,667.099520" />
<polyline stroke="black" fill="none" points="601.588119,630.597737 635.503662,630.383342" />
<polyline stroke="black" fill="none" points="601.838540,667.099520 635.845967,666.575944" />
<polyline stroke="black" fill="none" points="635.503662,630.383342 635.845967,666.575944" />
<polyline stroke="black" fill="none" points="541.249958,648.903623 541.325659,682.747186" />
<polyline stroke="black" fill="none" points="541.249958,648.903623 574.479568,648.787965" />
<polyline stroke="black" fill="none" points="541.249958,648.903623 545.177135,650.270524" />
<polyline stroke="black" fill="none" points="541.325659,682.747186 545.265690,685.178279" />
<polyline stroke="black" fill="none" points="574.479568,648.787965 579.431736,650.147534" />
<polyline stroke="black" fill="none" points="579.611230,684.959521 579.611230,684.959521" />
<polyline stroke="black" fill="none" points="545.177135,650.270524 545.265690,685.178279" />
<polyline stroke="black" fill="none" points="545.177135,650.270524 579.431736,650.147534" />
<polyline stroke="black" fill="none" points="545.265690,685.178279 579.611230,684.959521" />
<polyline stroke="black" fill="none" points="579.431736,650.147534 579.611230,684.959521" />
<polyline stroke="black" fill="none" points="496.954246,666.637985 494.089032,668.218270" />
<polyline stroke="black" fill="none" points="529.478694,699.080365 529.478694,699.080365" />
<polyline stroke="black" fill="none" points="494.043311,701.648633 494.043311,701.648633" />
<polyline stroke="black" fill="none" points="529.436236,667.193201 529.478694,699.080365" />
<polyline stroke="black" fill="none" points="529.297250,666.651404 527.068495,668.383599" />
<polyline stroke="black" fill="none" points="529.478694,699.080365 527.107061,701.902270" />
<polyline stroke="black" fill="none" points="494.089032,668.218270 494.043311,701.648633" />
<polyline stroke="black" fill="none" points="494.089032,668.218270 527.068495,668.383599" />
<polyline stroke="black" fill="none" points="494.043311,701.648633 527.107061,701.902270" />
<polyline stroke="black" fill="none" points="527.068495,668.383599 527.107061,701.902270" />
<polyline stroke="black" fill="none" points="482.345208,682.963475 487.108282,683.054233" />
<polyline stroke="black" fill="none" points="487.108282,683.054233 487.048637,714.470275" />
<polyline stroke="black" fill="none" points="487.108282,683.054233 481.974342,684.303216" />
<polyline stroke="black" fill="none" points="479.070712,685.009610 478.152667,685.232951" />
<polyline stroke="black" fill="none" points="487.048637,714.470275 478.069289,717.535321" />
<polyline stroke="black" fill="none" points="447.806451,685.276967 447.652637,716.697311" />
<polyline stroke="black" fill="none" points="469.002088,685.053320 478.152667,685.232951" />
<polyline stroke="black" fill="none" points="447.652637,716.697311 478.069289,717.535321" />
<polyline stroke="black" fill="none" points="478.152667,685.232951 478.069289,717.535321" />
<polyline stroke="black" fill="none" points="438.684881,698.115669 447.111545,698.457729" />
<polyline stroke="black" fill="none" points="405.616591,730.490306 405.616591,730.490306" />
<polyline stroke="black" fill="none" points="447.111545,698.457729 446.961369,728.836961" />
<polyline stroke="black" fill="none" points="447.111545,698.457729 436.353248,700.191955" />
<polyline stroke="black" fill="none" points="446.961369,728.836961 432.289017,731.971512" />
<polyline stroke="black" fill="none" points="405.845639,702.159774 405.616591,730.490306" />
<polyline stroke="black" fill="none" points="405.616591,730.490306 432.289017,731.971512" />
<polyline stroke="black" fill="none" points="432.470195,702.060045 432.289017,731.971512" />
<polyline stroke="black" fill="none" points="399.438115,712.156672 405.599820,712.607844" />
<polyline stroke="black" fill="none" points="408.913950,742.281720 408.913950,742.281720" />
<polyline stroke="black" fill="none" points="367.492832,743.175773 367.492832,743.175773" />
<polyline stroke="black" fill="none" points="409.001560,731.088768 408.913950,742.281720" />
<polyline stroke="black" fill="none" points="405.737312,713.286977 399.229144,714.088555" />
<polyline stroke="black" fill="none" points="408.913950,742.281720 389.595717,745.310078" />
<polyline stroke="black" fill="none" points="367.778771,717.113945 367.492832,743.175773" />
<polyline stroke="black" fill="none" points="367.492832,743.175773 389.595717,745.310078" />
<polyline stroke="black" fill="none" points="389.858392,717.040937 389.595717,745.310078" />
<polyline stroke="black" fill="none" points="888.121968,575.601460 888.858143,601.052924" />
<polyline stroke="black" fill="none" points="906.509180,559.476112 927.465499,558.836247" />
<polyline stroke="black" fill="none" points="888.858143,601.052924 907.444092,601.158389" />
<polyline stroke="black" fill="none" points="888.858143,601.052924 928.812518,600.941760" />
<polyline stroke="black" fill="none" points="907.444092,601.158389 946.836318,601.052924" />
<polyline stroke="black" fill="none" points="927.465499,558.836247 928.812518,600.941760" />
<polyline stroke="black" fill="none" points="927.465499,558.836247 945.467905,560.051266" />
<polyline stroke="black" fill="none" points="928.812518,600.941760 946.836318,601.052924" />
<polyline stroke="black" fill="none" points="945.467905,560.051266 946.836318,601.052924" />
<polyline stroke="black" fill="none" points="814.048286,601.275473 814.590432,624.661557" />
<polyline stroke="black" fill="none" points="830.639053,585.424279 845.506992,585.155032" />
<polyline stroke="black" fill="none" points="814.590432,624.661557 846.534347,625.241280" />
<polyline stroke="black" fill="none" points="845.506992,585.155032 846.534347,625.241280" />
<polyline stroke="black" fill="none" points="845.506992,585.155032 870.728994,585.562018" />
<polyline stroke="black" fill="none" points="846.534347,625.241280 871.811504,624.831809" />
<polyline stroke="black" fill="none" points="870.728994,585.562018 871.811504,624.831809" />
<polyline stroke="black" fill="none" points="748.152083,625.143651 748.528046,645.924618" />
<polyline stroke="black" fill="none" points="760.991473,608.839225 777.474680,608.810596" />
<polyline stroke="black" fill="none" points="760.788857,608.925766 771.266445,608.977402" />
<polyline stroke="black" fill="none" points="748.528046,645.924618 772.026603,647.200975" />
<polyline stroke="black" fill="none" points="777.474680,608.810596 801.459166,608.922722" />
<polyline stroke="black" fill="none" points="771.266445,608.977402 772.026603,647.200975" />
<polyline stroke="black" fill="none" points="771.266445,608.977402 801.459166,608.922722" />
<polyline stroke="black" fill="none" points="772.026603,647.200975 802.295633,646.595996" />
<polyline stroke="black" fill="none" points="801.459166,608.922722 802.295633,646.595996" />
<polyline stroke="black" fill="none" points="689.219276,646.771253 689.468925,665.189619" />
<polyline stroke="black" fill="none" points="696.111513,629.771012 721.156066,629.614156" />
<polyline stroke="black" fill="none" points="696.065538,630.184941 703.974540,630.597737" />
<polyline stroke="black" fill="none" points="689.468925,665.189619 704.511157,667.099520" />
<polyline stroke="black" fill="none" points="721.156066,629.614156 737.026898,630.383342" />
<polyline stroke="black" fill="none" points="703.974540,630.597737 704.511157,667.099520" />
<polyline stroke="black" fill="none" points="703.974540,630.597737 737.026898,630.383342" />
<polyline stroke="black" fill="none" points="704.511157,667.099520 737.650587,666.575944" />
<polyline stroke="black" fill="none" points="737.026898,630.383342 737.650587,666.575944" />
<polyline stroke="black" fill="none" points="636.066853,648.903623 636.387945,682.747186" />
<polyline stroke="black" fill="none" points="636.066853,648.903623 669.045726,648.787965" />
<polyline stroke="black" fill="none" points="636.066853,648.903623 642.957364,650.270524" />
<polyline stroke="black" fill="none" points="636.387945,682.747186 643.306910,685.178279" />
<polyline stroke="black" fill="none" points="669.045726,648.787965 676.945334,650.147534" />
<polyline stroke="black" fill="none" points="677.384396,684.959521 677.384396,684.959521" />
<polyline stroke="black" fill="none" points="642.957364,650.270524 643.306910,685.178279" />
<polyline stroke="black" fill="none" points="642.957364,650.270524 676.945334,650.147534" />
<polyline stroke="black" fill="none" points="643.306910,685.178279 677.384396,684.959521" />
<polyline stroke="black" fill="none" points="676.945334,650.147534 677.384396,684.959521" />
<polyline stroke="black" fill="none" points="588.216994,666.388196 597.233105,666.431757" />
<polyline stroke="black" fill="none" points="588.216994,666.388196 587.613464,668.218270" />
<polyline stroke="black" fill="none" points="620.532874,666.831155 620.838163,668.383599" />
<polyline stroke="black" fill="none" points="587.613464,668.218270 587.806482,701.648633" />
<polyline stroke="black" fill="none" points="587.613464,668.218270 620.838163,668.383599" />
<polyline stroke="black" fill="none" points="587.806482,701.648633 621.116724,701.902270" />
<polyline stroke="black" fill="none" points="620.838163,668.383599 621.116724,701.902270" />
<polyline stroke="black" fill="none" points="542.109264,683.249818 537.397648,684.637300" />
<polyline stroke="black" fill="none" points="574.923758,685.561988 575.062471,714.470275" />
<polyline stroke="black" fill="none" points="568.945534,685.054178 568.412222,685.232951" />
<polyline stroke="black" fill="none" points="575.062471,714.470275 568.551186,717.535321" />
<polyline stroke="black" fill="none" points="537.397648,684.637300 537.459745,716.697311" />
<polyline stroke="black" fill="none" points="537.397648,684.637300 544.181195,684.767581" />
<polyline stroke="black" fill="none" points="560.926399,685.089182 568.412222,685.232951" />
<polyline stroke="black" fill="none" points="537.459745,716.697311 568.551186,717.535321" />
<polyline stroke="black" fill="none" points="568.412222,685.232951 568.551186,717.535321" />
<polyline stroke="black" fill="none" points="529.734102,698.371978 531.924535,698.457729" />
<polyline stroke="black" fill="none" points="493.936604,699.325509 491.809716,699.702014" />
<polyline stroke="black" fill="none" points="531.924535,698.457729 531.970648,728.836961" />
<polyline stroke="black" fill="none" points="531.924535,698.457729 529.722141,698.873715" />
<polyline stroke="black" fill="none" points="531.970648,728.836961 519.452956,731.971512" />
<polyline stroke="black" fill="none" points="491.809716,699.702014 491.762363,730.490306" />
<polyline stroke="black" fill="none" points="491.809716,699.702014 493.996047,699.790230" />
<polyline stroke="black" fill="none" points="491.762363,730.490306 519.452956,731.971512" />
<polyline stroke="black" fill="none" points="519.436016,702.060045 519.452956,731.971512" />
<polyline stroke="black" fill="none" points="487.437532,712.607844 491.179576,712.867370" />
<polyline stroke="black" fill="none" points="491.132972,742.281720 491.132972,742.281720" />
<polyline stroke="black" fill="none" points="450.247962,743.175773 450.247962,743.175773" />
<polyline stroke="black" fill="none" points="491.179576,712.867370 491.132972,742.281720" />
<polyline stroke="black" fill="none" points="491.179576,712.867370 487.057883,713.427574" />
<polyline stroke="black" fill="none" points="491.132972,742.281720 473.630658,745.310078" />
<polyline stroke="black" fill="none" points="450.370152,717.113945 450.247962,743.175773" />
<polyline stroke="black" fill="none" points="450.247962,743.175773 473.630658,745.310078" />
<polyline stroke="black" fill="none" points="473.711249,717.641145 473.630658,745.310078" />
<polyline stroke="black" fill="none" points="447.185049,725.766043 450.169347,726.113065" />
<polyline stroke="black" fill="none" points="452.341449,743.466760 452.289726,754.886201" />
<polyline stroke="black" fill="none" points="450.321664,726.593494 447.372826,726.901213" />
<polyline stroke="black" fill="none" points="452.289726,754.886201 430.921845,757.640209" />
<polyline stroke="black" fill="none" points="412.663735,730.928203 412.482876,754.886201" />
<polyline stroke="black" fill="none" points="412.482876,754.886201 430.921845,757.640209" />
<polyline stroke="black" fill="none" points="431.079031,732.077440 430.921845,757.640209" />
<polyline stroke="black" fill="none" points="923.732540,601.275473 924.471558,624.661557" />
<polyline stroke="black" fill="none" points="946.862774,585.343105 958.308301,585.155032" />
<polyline stroke="black" fill="none" points="924.471558,624.661557 959.683137,625.241280" />
<polyline stroke="black" fill="none" points="958.308301,585.155032 959.683137,625.241280" />
<polyline stroke="black" fill="none" points="958.308301,585.155032 981.236289,585.562018" />
<polyline stroke="black" fill="none" points="959.683137,625.241280 982.652269,624.831809" />
<polyline stroke="black" fill="none" points="981.236289,585.562018 982.652269,624.831809" />
<polyline stroke="black" fill="none" points="852.429276,625.884691 852.951897,645.924618" />
<polyline stroke="black" fill="none" points="871.785232,608.825877 880.152754,608.810596" />
<polyline stroke="black" fill="none" points="871.555064,608.946719 878.645607,608.977402" />
<polyline stroke="black" fill="none" points="852.951897,645.924618 879.720596,647.200975" />
<polyline stroke="black" fill="none" points="880.152754,608.810596 907.297301,608.922722" />
<polyline stroke="black" fill="none" points="878.645607,608.977402 879.720596,647.200975" />
<polyline stroke="black" fill="none" points="878.645607,608.977402 907.297301,608.922722" />
<polyline stroke="black" fill="none" points="879.720596,647.200975 908.439614,646.595996" />
<polyline stroke="black" fill="none" points="907.297301,608.922722 908.439614,646.595996" />
<polyline stroke="black" fill="none" points="788.600603,647.478694 788.975265,665.189619" />
<polyline stroke="black" fill="none" points="802.086811,629.726567 819.582451,629.614156" />
<polyline stroke="black" fill="none" points="802.273423,630.421442 806.360961,630.597737" />
<polyline stroke="black" fill="none" points="788.975265,665.189619 807.183774,667.099520" />
<polyline stroke="black" fill="none" points="819.582451,629.614156 838.550135,630.383342" />
<polyline stroke="black" fill="none" points="806.360961,630.597737 807.183774,667.099520" />
<polyline stroke="black" fill="none" points="806.360961,630.597737 838.550135,630.383342" />
<polyline stroke="black" fill="none" points="807.183774,667.099520 839.455207,666.575944" />
<polyline stroke="black" fill="none" points="838.550135,630.383342 839.455207,666.575944" />
<polyline stroke="black" fill="none" points="731.189285,667.157416 731.450232,682.747186" />
<polyline stroke="black" fill="none" points="737.443252,648.880442 763.611884,648.787965" />
<polyline stroke="black" fill="none" points="737.518013,649.823911 740.737594,650.270524" />
<polyline stroke="black" fill="none" points="731.450232,682.747186 741.348131,685.178279" />
<polyline stroke="black" fill="none" points="763.611884,648.787965 774.458931,650.147534" />
<polyline stroke="black" fill="none" points="740.737594,650.270524 741.348131,685.178279" />
<polyline stroke="black" fill="none" points="740.737594,650.270524 774.458931,650.147534" />
<polyline stroke="black" fill="none" points="741.348131,685.178279 775.157561,684.959521" />
<polyline stroke="black" fill="none" points="774.458931,650.147534 775.157561,684.959521" />
<polyline stroke="black" fill="none" points="679.026850,666.388196 679.440812,698.841293" />
<polyline stroke="black" fill="none" points="679.026850,666.388196 699.151559,666.484736" />
<polyline stroke="black" fill="none" points="679.026850,666.388196 681.137897,668.218270" />
<polyline stroke="black" fill="none" points="679.440812,698.841293 681.569654,701.648633" />
<polyline stroke="black" fill="none" points="712.303523,667.011959 714.607831,668.383599" />
<polyline stroke="black" fill="none" points="681.137897,668.218270 681.569654,701.648633" />
<polyline stroke="black" fill="none" points="681.137897,668.218270 714.607831,668.383599" />
<polyline stroke="black" fill="none" points="681.569654,701.648633 715.126386,701.902270" />
<polyline stroke="black" fill="none" points="714.607831,668.383599 715.126386,701.902270" />
<polyline stroke="black" fill="none" points="631.855824,682.490443 636.149210,682.568882" />
<polyline stroke="black" fill="none" points="631.855824,682.490443 626.985713,684.637300" />
<polyline stroke="black" fill="none" points="627.266852,716.697311 627.266852,716.697311" />
<polyline stroke="black" fill="none" points="662.743995,685.561988 663.076306,714.470275" />
<polyline stroke="black" fill="none" points="658.920749,685.098797 658.671778,685.232951" />
<polyline stroke="black" fill="none" points="663.076306,714.470275 659.033083,717.535321" />
<polyline stroke="black" fill="none" points="626.985713,684.637300 627.266852,716.697311" />
<polyline stroke="black" fill="none" points="626.985713,684.637300 642.135975,684.922102" />
<polyline stroke="black" fill="none" points="652.933279,685.125076 658.671778,685.232951" />
<polyline stroke="black" fill="none" points="627.266852,716.697311 659.033083,717.535321" />
<polyline stroke="black" fill="none" points="658.671778,685.232951 659.033083,717.535321" />
<polyline stroke="black" fill="none" points="587.610720,697.622482 577.753922,699.702014" />
<polyline stroke="black" fill="none" points="616.979927,728.836961 616.979927,728.836961" />
<polyline stroke="black" fill="none" points="616.766555,702.095827 616.979927,728.836961" />
<polyline stroke="black" fill="none" points="616.979927,728.836961 606.616894,731.971512" />
<polyline stroke="black" fill="none" points="577.753922,699.702014 577.908135,730.490306" />
<polyline stroke="black" fill="none" points="577.753922,699.702014 587.415982,700.078075" />
<polyline stroke="black" fill="none" points="577.908135,730.490306 606.616894,731.971512" />
<polyline stroke="black" fill="none" points="606.401837,702.060045 606.616894,731.971512" />
<polyline stroke="black" fill="none" points="537.167363,712.959852 532.955878,713.568048" />
<polyline stroke="black" fill="none" points="573.351993,742.281720 573.351993,742.281720" />
<polyline stroke="black" fill="none" points="533.003092,743.175773 533.003092,743.175773" />
<polyline stroke="black" fill="none" points="573.228645,715.802891 573.351993,742.281720" />
<polyline stroke="black" fill="none" points="573.351993,742.281720 557.665599,745.310078" />
<polyline stroke="black" fill="none" points="532.955878,713.568048 533.003092,743.175773" />
<polyline stroke="black" fill="none" points="532.955878,713.568048 537.329528,713.865353" />
<polyline stroke="black" fill="none" points="533.003092,743.175773 557.665599,745.310078" />
<polyline stroke="black" fill="none" points="557.569683,717.641145 557.665599,745.310078" />
<polyline stroke="black" fill="none" points="531.864674,729.220249 531.903425,754.886201" />
<polyline stroke="black" fill="none" points="531.903425,754.886201 512.000000,757.640209" />
<polyline stroke="black" fill="none" points="492.132747,730.928203 492.096575,754.886201" />
<polyline stroke="black" fill="none" points="492.096575,754.886201 512.000000,757.640209" />
<polyline stroke="black" fill="none" points="512.000000,732.077440 512.000000,757.640209" />
<polyline stroke="black" fill="none" points="491.240185,738.837495 491.847533,738.945623" />
<polyline stroke="black" fill="none" points="492.414805,766.716406 492.414805,766.716406" />
<polyline stroke="black" fill="none" points="454.764784,765.740077 454.764784,765.740077" />
<polyline stroke="black" fill="none" points="492.432071,755.084020 492.414805,766.716406" />
<polyline stroke="black" fill="none" points="492.004154,739.091883 491.552186,739.129863" />
<polyline stroke="black" fill="none" points="492.414805,766.716406 469.461649,769.043677" />
<polyline stroke="black" fill="none" points="454.860240,743.736014 454.764784,765.740077" />
<polyline stroke="black" fill="none" points="454.764784,765.740077 469.461649,769.043677" />
<polyline stroke="black" fill="none" points="469.537664,745.460979 469.461649,769.043677" />
<polyline stroke="black" fill="none" points="956.693063,625.884691 957.375747,645.924618" />
<polyline stroke="black" fill="none" points="982.303769,608.811611 982.830829,608.810596" />
<polyline stroke="black" fill="none" points="982.337117,608.963179 986.024769,608.977402" />
<polyline stroke="black" fill="none" points="957.375747,645.924618 987.414588,647.200975" />
<polyline stroke="black" fill="none" points="982.830829,608.810596 1013.135436,608.922722" />
<polyline stroke="black" fill="none" points="986.024769,608.977402 987.414588,647.200975" />
<polyline stroke="black" fill="none" points="986.024769,608.977402 1013.135436,608.922722" />
<polyline stroke="black" fill="none" points="987.414588,647.200975 1014.583596,646.595996" />
<polyline stroke="black" fill="none" points="1013.135436,608.922722 1014.583596,646.595996" />
<polyline stroke="black" fill="none" points="887.972342,647.478694 888.481605,665.189619" />
<polyline stroke="black" fill="none" points="908.289100,629.678265 918.008835,629.614156" />
<polyline stroke="black" fill="none" points="908.308496,630.581609 908.747383,630.597737" />
<polyline stroke="black" fill="none" points="888.481605,665.189619 909.856391,667.099520" />
<polyline stroke="black" fill="none" points="918.008835,629.614156 940.073371,630.383342" />
<polyline stroke="black" fill="none" points="908.747383,630.597737 909.856391,667.099520" />
<polyline stroke="black" fill="none" points="908.747383,630.597737 940.073371,630.383342" />
<polyline stroke="black" fill="none" points="909.856391,667.099520 941.259828,666.575944" />
<polyline stroke="black" fill="none" points="940.073371,630.383342 941.259828,666.575944" />
<polyline stroke="black" fill="none" points="826.138534,667.157416 826.512518,682.747186" />
<polyline stroke="black" fill="none" points="839.362104,648.854972 858.178042,648.787965" />
<polyline stroke="black" fill="none" points="826.512518,682.747186 839.389351,685.178279" />
<polyline stroke="black" fill="none" points="858.178042,648.787965 871.972529,650.147534" />
<polyline stroke="black" fill="none" points="838.935577,667.003022 839.389351,685.178279" />
<polyline stroke="black" fill="none" points="839.188710,650.268057 871.972529,650.147534" />
<polyline stroke="black" fill="none" points="839.389351,685.178279 872.930726,684.959521" />
<polyline stroke="black" fill="none" points="871.972529,650.147534 872.930726,684.959521" />
<polyline stroke="black" fill="none" points="770.206956,685.191419 770.475732,698.841293" />
<polyline stroke="black" fill="none" points="775.061022,666.413081 801.246435,666.537806" />
<polyline stroke="black" fill="none" points="770.475732,698.841293 775.332825,701.648633" />
<polyline stroke="black" fill="none" points="802.898078,666.651404 808.377498,668.383599" />
<polyline stroke="black" fill="none" points="775.010560,685.580785 775.332825,701.648633" />
<polyline stroke="black" fill="none" points="775.334904,668.221568 808.377498,668.383599" />
<polyline stroke="black" fill="none" points="775.332825,701.648633 809.136048,701.902270" />
<polyline stroke="black" fill="none" points="808.377498,668.383599 809.136048,701.902270" />
<polyline stroke="black" fill="none" points="719.023696,682.490443 730.937904,682.703719" />
<polyline stroke="black" fill="none" points="719.023696,682.490443 716.573779,684.637300" />
<polyline stroke="black" fill="none" points="717.073960,716.697311 717.073960,716.697311" />
<polyline stroke="black" fill="none" points="750.564232,685.561988 751.090141,714.470275" />
<polyline stroke="black" fill="none" points="748.996527,685.143465 748.931333,685.232951" />
<polyline stroke="black" fill="none" points="751.090141,714.470275 749.514980,717.535321" />
<polyline stroke="black" fill="none" points="716.573779,684.637300 717.073960,716.697311" />
<polyline stroke="black" fill="none" points="716.573779,684.637300 740.471797,685.077224" />
<polyline stroke="black" fill="none" points="745.022838,685.161002 748.931333,685.232951" />
<polyline stroke="black" fill="none" points="717.073960,716.697311 749.514980,717.535321" />
<polyline stroke="black" fill="none" points="748.931333,685.232951 749.514980,717.535321" />
<polyline stroke="black" fill="none" points="672.527919,697.397056 678.856125,697.628329" />
<polyline stroke="black" fill="none" points="672.527919,697.397056 663.698129,699.702014" />
<polyline stroke="black" fill="none" points="701.989206,728.836961 701.989206,728.836961" />
<polyline stroke="black" fill="none" points="701.603053,702.095827 701.989206,728.836961" />
<polyline stroke="black" fill="none" points="701.989206,728.836961 693.780833,731.971512" />
<polyline stroke="black" fill="none" points="663.698129,699.702014 664.053907,730.490306" />
<polyline stroke="black" fill="none" points="663.698129,699.702014 680.217742,700.323008" />
<polyline stroke="black" fill="none" points="664.053907,730.490306 693.780833,731.971512" />
<polyline stroke="black" fill="none" points="693.367658,702.060045 693.780833,731.971512" />
<polyline stroke="black" fill="none" points="627.205142,711.672793 616.971598,713.333316" />
<polyline stroke="black" fill="none" points="655.571015,742.281720 655.571015,742.281720" />
<polyline stroke="black" fill="none" points="615.758221,743.175773 615.758221,743.175773" />
<polyline stroke="black" fill="none" points="655.301571,717.564834 655.571015,742.281720" />
<polyline stroke="black" fill="none" points="655.571015,742.281720 641.700540,745.310078" />
<polyline stroke="black" fill="none" points="615.650800,729.539667 615.758221,743.175773" />
<polyline stroke="black" fill="none" points="617.055551,713.666969 626.814413,714.297685" />
<polyline stroke="black" fill="none" points="615.758221,743.175773 641.700540,745.310078" />
<polyline stroke="black" fill="none" points="641.428118,717.641145 641.700540,745.310078" />
<polyline stroke="black" fill="none" points="577.558352,725.679599 573.456407,726.156583" />
<polyline stroke="black" fill="none" points="611.336265,730.928203 611.517124,754.886201" />
<polyline stroke="black" fill="none" points="611.517124,754.886201 593.078155,757.640209" />
<polyline stroke="black" fill="none" points="571.655967,742.896307 571.710274,754.886201" />
<polyline stroke="black" fill="none" points="573.678336,726.593494 577.472446,726.989420" />
<polyline stroke="black" fill="none" points="571.710274,754.886201 593.078155,757.640209" />
<polyline stroke="black" fill="none" points="592.917404,731.497620 593.078155,757.640209" />
<polyline stroke="black" fill="none" points="532.738799,738.134082 532.301534,738.171520" />
<polyline stroke="black" fill="none" points="569.583223,766.716406 569.583223,766.716406" />
<polyline stroke="black" fill="none" points="531.466831,765.740077 531.466831,765.740077" />
<polyline stroke="black" fill="none" points="569.481782,743.472125 569.583223,766.716406" />
<polyline stroke="black" fill="none" points="569.583223,766.716406 547.741752,769.043677" />
<polyline stroke="black" fill="none" points="531.451396,755.278987 531.466831,765.740077" />
<polyline stroke="black" fill="none" points="532.063289,738.353634 532.701340,738.460980" />
<polyline stroke="black" fill="none" points="531.466831,765.740077 547.741752,769.043677" />
<polyline stroke="black" fill="none" points="547.676365,744.900513 547.741752,769.043677" />
<polyline stroke="black" fill="none" points="529.556798,755.256302 529.586855,777.826079" />
<polyline stroke="black" fill="none" points="529.586855,777.826079 505.533264,779.596718" />
<polyline stroke="black" fill="none" points="494.641700,755.656808 494.615121,775.843179" />
<polyline stroke="black" fill="none" points="494.615121,775.843179 505.533264,779.596718" />
<polyline stroke="black" fill="none" points="505.544430,756.792827 505.533264,779.596718" />
</g></svg>